<?xml version="1.0" encoding="UTF-8"?>
<svg width="24px" height="24px" viewBox="0 0 24 24" version="1.1" xmlns="http://www.w3.org/2000/svg" xmlns:xlink="http://www.w3.org/1999/xlink">
    <!-- Generator: Sketch 51.1 (57501) - http://www.bohemiancoding.com/sketch -->
    <title>@1x单行列表/图标/右/Add</title>
    <desc>Created with Sketch.</desc>
    <defs></defs>
    <g id="单行列表/图标/右/Add" stroke="none" stroke-width="1" fill="none" fill-rule="evenodd">
        <g id="Button---Add" transform="translate(1.000000, 1.000000)" fill="#24C77E">
            <path d="M11,0 C17.0751322,3.71994563e-16 22,4.92486775 22,11 C22,17.0751322 17.0751322,22 11,22 C4.92486775,22 7.43989126e-16,17.0751322 0,11 C-7.43989126e-16,4.92486775 4.92486775,1.11598369e-15 11,0 L11,0 Z M11,1 C16.5228475,1 21,5.4771525 21,11 C21,16.5228475 16.5228475,21 11,21 C5.4771525,21 1,16.5228475 1,11 C1,5.4771525 5.4771525,1 11,1 L11,1 Z M16.5,11.5 L11.5,11.5 L11.5,16.5 L10.5,16.5 L10.5,11.5 L5.5,11.5 L5.5,10.5 L10.5,10.5 L10.5,5.5 L11.5,5.5 L11.5,10.5 L16.5,10.5 L16.5,11.5 Z" id="Add"></path>
        </g>
    </g>
</svg>