<?xml version="1.0" encoding="UTF-8"?>
<svg width="20px" height="20px" viewBox="0 0 20 20" version="1.1" xmlns="http://www.w3.org/2000/svg" xmlns:xlink="http://www.w3.org/1999/xlink">
    <!-- Generator: Sketch 51.1 (57501) - http://www.bohemiancoding.com/sketch -->
    <title>@1x单行列表/图标/右/Cancel</title>
    <desc>Created with Sketch.</desc>
    <defs></defs>
    <g id="单行列表/图标/右/Cancel" stroke="none" stroke-width="1" fill="none" fill-rule="evenodd">
        <g id="Clear-Glyph" fill="#999999">
            <g id="Clear-Glyph-Shape" transform="translate(10.003709, 10.003709) rotate(45.000000) translate(-10.003709, -10.003709) translate(3.003709, 3.003709)">
                <path d="M6.34375,6.34375 L3.28125,6.34375 C2.91881313,6.34375 2.625,6.63756313 2.625,7 C2.625,7.36243687 2.91881313,7.65625 3.28125,7.65625 L6.34375,7.65625 L6.34375,10.71875 C6.34375,11.0811869 6.63756313,11.375 7,11.375 C7.36243687,11.375 7.65625,11.0811869 7.65625,10.71875 L7.65625,7.65625 L10.71875,7.65625 C11.0811869,7.65625 11.375,7.36243687 11.375,7 C11.375,6.63756313 11.0811869,6.34375 10.71875,6.34375 L7.65625,6.34375 L7.65625,3.28125 C7.65625,2.91881313 7.36243687,2.625 7,2.625 C6.63756313,2.625 6.34375,2.91881313 6.34375,3.28125 L6.34375,6.34375 Z M7,14 C3.13400675,14 0,10.8659932 0,7 C0,3.13400675 3.13400675,0 7,0 C10.8659932,0 14,3.13400675 14,7 C14,10.8659932 10.8659932,14 7,14 Z" id="clear"></path>
            </g>
        </g>
    </g>
</svg>