<?xml version="1.0" encoding="UTF-8"?>
<svg width="26px" height="22px" viewBox="0 0 26 22" version="1.1" xmlns="http://www.w3.org/2000/svg" xmlns:xlink="http://www.w3.org/1999/xlink">
    <!-- Generator: Sketch 51.2 (57519) - http://www.bohemiancoding.com/sketch -->
    <title>@1xlouder icon</title>
    <desc>Created with Sketch.</desc>
    <defs></defs>
    <g id="symbol" stroke="none" stroke-width="1" fill="none" fill-rule="evenodd">
        <g id="单行列表/其他状态/Sliders-Glyphs/iOS" transform="translate(-343.000000, -14.000000)" fill="#999999">
            <g id="Slider---Glyphs" transform="translate(15.000000, 11.000000)">
                <path d="M349.809169,3.30137405 C349.591172,3.02237829 349.107179,2.8898803 348.832684,3.11137694 C348.558688,3.33237358 348.41069,3.82336613 348.628187,4.10236189 C350.854653,6.94981864 352.031635,10.3807665 352.031635,14.0242112 C352.031635,17.6681558 350.854653,21.0991037 348.628187,23.9465605 C348.41069,24.2255562 348.558688,24.7165488 348.832684,24.9375454 C348.949682,25.031544 349.173178,24.9915446 349.311176,24.9915446 C349.498173,24.9915446 349.684171,24.9080459 349.809169,24.7475483 C352.215132,21.669595 353.487113,17.9616514 353.487113,14.0242112 C353.487113,10.087271 352.215132,6.3793273 349.809169,3.30137405 M346.320222,6.2738289 C346.102725,5.99933307 345.643732,5.9053345 345.374236,6.12883111 C345.10624,6.35182772 344.898743,6.80632081 345.11624,7.08031665 C346.663217,9.03128702 347.514704,11.4922496 347.514704,14.0087114 C347.514704,16.5256732 346.663217,18.9861358 345.11624,20.9371062 C344.898743,21.211102 345.08974,21.6655951 345.357736,21.8885917 C345.473735,21.9850903 345.696231,21.9800903 345.834229,21.9800903 C346.016726,21.9800903 346.196724,21.8995916 346.320222,21.7435939 C348.046695,19.565127 348.997681,16.8186687 348.997681,14.0087114 C348.997681,11.1992541 348.046695,8.45229581 346.320222,6.2738289 M341.754291,9.12728556 C341.481295,9.35128216 341.276298,9.74577617 341.508795,10.0082722 C342.49528,11.1232552 343.038272,12.5437337 343.038272,14.0082114 C343.038272,15.4731892 342.49528,16.8936676 341.508795,18.0081507 C341.276298,18.2706467 341.481295,18.6656407 341.754291,18.8891373 C341.876289,18.9896358 342.026287,19.039135 342.174285,19.039135 C342.357782,19.039135 342.539779,18.9641361 342.668277,18.8196383 C343.854259,17.4791587 344.507749,15.7701847 344.507749,14.0082114 C344.507749,12.2462382 343.854259,10.5377641 342.668277,9.1972845 C342.436281,8.93478848 342.026787,8.90228898 341.754291,9.12728556 M338.084347,6.68382268 L332.312434,11.0122569 L328,11.0122569 L328,17.5121582 L332.109938,17.5121582 L338.084347,21.9930901 C338.304343,22.1580876 338.484341,22.068089 338.484341,21.7930932 L338.484341,6.88381964 C338.484341,6.60882381 338.304343,6.51882518 338.084347,6.68382268" id="louder-icon"></path>
            </g>
        </g>
    </g>
</svg>